<?xml version="1.0" standalone="no"?><!DOCTYPE svg PUBLIC "-//W3C//DTD SVG 1.1//EN" "http://www.w3.org/Graphics/SVG/1.1/DTD/svg11.dtd"><svg t="1729826990885" class="icon" viewBox="0 0 1024 1024" version="1.1" xmlns="http://www.w3.org/2000/svg" p-id="25975" width="48" height="48" xmlns:xlink="http://www.w3.org/1999/xlink"><path d="M901.568 126.4c-83.904-83.968-231.68-81.152-387.584-3.84C358.016 45.248 210.304 42.432 126.336 126.4 56.576 196.16 46.848 309.952 89.728 435.712c-26.048 38.592-20.544 90.24 12.992 122.56-55.936 136.896-53.504 266.176 23.68 343.296 83.904 83.968 231.68 81.152 387.776 3.84 152.768 75.648 302.016 81.6 387.392-3.84 85.44-85.44 79.424-234.688 3.712-387.584 75.712-152.896 81.728-302.144-3.712-387.584zM856.32 856.32c-96.384 96.448-332.608 29.44-523.328-161.28a32 32 0 0 0-45.248 45.184 913.024 913.024 0 0 0 157.376 126.336c-117.248 47.872-219.136 44.16-273.472-10.24-55.808-55.808-56.576-158.4-10.688-271.808 2.816 0.256 5.504 0.832 8.384 0.832a96 96 0 0 0 96-96c0-20.992-6.912-40.32-18.368-56.064 26.048-35.584 54.848-69.12 86.016-100.288a32 32 0 1 0-45.248-45.248 933.632 933.632 0 0 0-93.44 109.312 92.928 92.928 0 0 0-24.96-3.712c-8.32 0.128-16.64 1.344-24.704 3.648-28.736-96.448-19.84-178.56 27.008-225.344 62.336-62.4 187.264-58.24 326.08 14.208 5.12 2.56 10.88 3.584 16.576 3.072a31.104 31.104 0 0 0 16-3.136c138.88-72.32 263.68-76.544 326.016-14.144 56 56 56.576 159.168 10.048 273.216a879.36 879.36 0 0 0-67.584-92.48c6.528-11.584 10.56-24.768 10.56-39.04a80 80 0 1 0-80 80c6.4 0 12.48-0.896 18.432-2.304 32.256 38.208 60.8 79.36 85.376 122.88a822.784 822.784 0 0 1-126.144 168.384c-3.2-0.384-6.4-0.96-9.6-0.96a80 80 0 1 0 65.728 34.624 901.056 901.056 0 0 0 103.232-132.864c46.464 113.984 45.952 217.216-10.048 273.28zM521.344 393.344a128 128 0 1 0 0 256 128 128 0 0 0 0-256z m0 192a64 64 0 1 1 0-128 64 64 0 0 1 0 128z" p-id="25976" fill="#4945ff"></path></svg>